<svg width="48" height="48" viewBox="0 0 48 48" fill="none" xmlns="http://www.w3.org/2000/svg">
<path d="M18.0844 23.125C18.1744 23.0294 18.2824 22.9524 18.4021 22.8985C18.5219 22.8447 18.6511 22.8149 18.7824 22.8109C18.9137 22.807 19.0445 22.8289 19.1673 22.8755C19.2901 22.9221 19.4025 22.9925 19.4981 23.0825C24.1 27.4175 28.7175 30.055 34.1512 31.3994C34.8844 29.3994 34.9494 27.1982 34.3162 25.0507C33.4762 22.2013 31.52 19.7188 28.6606 17.8719C26.1081 16.2232 23.5569 15.7938 21.0887 15.3788C17.975 14.855 15.0337 14.36 12.2269 11.3882C11.9144 11.0594 11.4887 10.9275 11.0819 11.0344C10.6169 11.1594 10.305 11.5269 10.1556 12.1344C9.8056 13.5563 10.0306 17.5413 11.015 21.7482C12.5956 28.5069 15.1181 31.9269 16.9562 33.6063C19.3312 35.7744 22.4325 36.975 25.5144 36.975C26.0953 36.976 26.6754 36.9333 27.25 36.8475C29.8569 36.4525 32.0269 35.1432 33.25 33.2382C27.6569 31.7832 22.8787 29.0163 18.125 24.5407C18.0292 24.4505 17.9521 24.3423 17.8983 24.2223C17.8444 24.1023 17.8147 23.9728 17.8109 23.8413C17.8071 23.7098 17.8293 23.5788 17.8763 23.4559C17.9232 23.333 17.9939 23.2206 18.0844 23.125ZM37.2144 32.0119C36.1625 31.85 35.1437 31.6469 34.1519 31.4013C33.9479 31.958 33.6942 32.4952 33.3937 33.0063C33.3481 33.0844 33.3 33.1619 33.2506 33.2382C34.457 33.5505 35.6786 33.8008 36.9106 33.9882C37.0417 34.0112 37.1761 34.0078 37.3058 33.9783C37.4356 33.9487 37.5582 33.8935 37.6664 33.816C37.7745 33.7384 37.8661 33.6401 37.9358 33.5266C38.0055 33.4132 38.0518 33.287 38.0721 33.1555C38.0923 33.0239 38.0861 32.8897 38.0538 32.7605C38.0215 32.6314 37.9637 32.51 37.8839 32.4035C37.8041 32.297 37.7038 32.2075 37.5889 32.1403C37.4741 32.073 37.3469 32.0294 37.215 32.0119H37.2144Z" fill="#1F8654"/>
</svg>
